<svg width="50" height="50" viewBox="0 0 50 50" fill="none" xmlns="http://www.w3.org/2000/svg">
<path d="M50 25C50 38.8071 38.8071 50 25 50C11.1929 50 0 38.8071 0 25C0 11.1929 11.1929 0 25 0C38.8071 0 50 11.1929 50 25Z" fill="#009688"/>
<path d="M30.94 21.14C30.3987 20.0013 29.6147 19.124 28.588 18.508C27.5613 17.8733 26.3667 17.556 25.004 17.556C23.6413 17.556 22.4093 17.8733 21.308 18.508C20.2253 19.124 19.3667 20.02 18.732 21.196C18.116 22.3533 17.808 23.6973 17.808 25.228C17.808 26.7587 18.116 28.1027 18.732 29.26C19.3667 30.4173 20.2253 31.3133 21.308 31.948C22.4093 32.564 23.6413 32.872 25.004 32.872C26.908 32.872 28.476 32.3027 29.708 31.164C30.94 30.0253 31.6587 28.4853 31.864 26.544H24.08V24.472H34.58V26.432C34.4307 28.0373 33.9267 29.512 33.068 30.856C32.2093 32.1813 31.08 33.236 29.68 34.02C28.28 34.7853 26.7213 35.168 25.004 35.168C23.1933 35.168 21.5413 34.748 20.048 33.908C18.5547 33.0493 17.3693 31.864 16.492 30.352C15.6333 28.84 15.204 27.132 15.204 25.228C15.204 23.324 15.6333 21.616 16.492 20.104C17.3693 18.5733 18.5547 17.388 20.048 16.548C21.5413 15.6893 23.1933 15.26 25.004 15.26C27.076 15.26 28.9053 15.7733 30.492 16.8C32.0973 17.8267 33.264 19.2733 33.992 21.14H30.94Z" fill="white"/>
</svg>
